<mxfile host="app.diagrams.net" agent="Mozilla/5.0 (X11; Linux x86_64; rv:131.0) Gecko/20100101 Firefox/131.0" version="24.8.2" pages="3">
  <diagram name="Pagina-1" id="XoTo0wK-LRyaR-0TSazz">
    <mxGraphModel dx="1509" dy="821" grid="1" gridSize="10" guides="1" tooltips="1" connect="1" arrows="1" fold="1" page="1" pageScale="1" pageWidth="827" pageHeight="1169" math="0" shadow="0">
      <root>
        <mxCell id="0" />
        <mxCell id="1" parent="0" />
        <mxCell id="ZbFLgx1OH3lc_ozg9QVk-9" value="&lt;p style=&quot;margin:0px;margin-top:4px;text-align:center;&quot;&gt;&lt;i&gt;&amp;lt;&amp;lt;Interface&amp;gt;&amp;gt;&lt;/i&gt;&lt;br&gt;&lt;b&gt;GameModel&lt;/b&gt;&lt;/p&gt;&lt;hr size=&quot;1&quot; style=&quot;border-style:solid;&quot;&gt;&lt;p style=&quot;margin:0px;margin-left:4px;&quot;&gt;+ name: String&lt;/p&gt;&lt;p style=&quot;margin:0px;margin-left:4px;&quot;&gt;+ state: State&lt;/p&gt;&lt;hr size=&quot;1&quot; style=&quot;border-style:solid;&quot;&gt;&lt;p style=&quot;margin:0px;margin-left:4px;&quot;&gt;+ getName(): String&lt;/p&gt;&lt;p style=&quot;margin:0px;margin-left:4px;&quot;&gt;+ changeState(state: State): Unit&lt;/p&gt;" style="verticalAlign=top;align=left;overflow=fill;html=1;whiteSpace=wrap;" vertex="1" parent="1">
          <mxGeometry x="30" y="280" width="190" height="140" as="geometry" />
        </mxCell>
        <mxCell id="ZbFLgx1OH3lc_ozg9QVk-10" value="&lt;p style=&quot;margin:0px;margin-top:4px;text-align:center;&quot;&gt;&lt;i&gt;&amp;lt;&amp;lt;Interface&amp;gt;&amp;gt;&lt;/i&gt;&lt;br&gt;&lt;b&gt;GameBuilder&lt;/b&gt;&lt;/p&gt;&lt;hr size=&quot;1&quot; style=&quot;border-style:solid;&quot;&gt;&lt;p style=&quot;margin:0px;margin-left:4px;&quot;&gt;+ setName(name: String): GameBuilder&lt;/p&gt;&lt;p style=&quot;margin:0px;margin-left:4px;&quot;&gt;+ setInitialState(state: State): GameBuilder&lt;/p&gt;&lt;p style=&quot;margin:0px;margin-left:4px;&quot;&gt;+ build(): GameModel&lt;/p&gt;" style="verticalAlign=top;align=left;overflow=fill;html=1;whiteSpace=wrap;" vertex="1" parent="1">
          <mxGeometry x="340" y="300" width="250" height="100" as="geometry" />
        </mxCell>
        <mxCell id="ZbFLgx1OH3lc_ozg9QVk-11" value="" style="endArrow=diamondThin;endFill=0;endSize=24;html=1;rounded=0;" edge="1" parent="1" source="ZbFLgx1OH3lc_ozg9QVk-10" target="ZbFLgx1OH3lc_ozg9QVk-9">
          <mxGeometry width="160" relative="1" as="geometry">
            <mxPoint x="190" y="350" as="sourcePoint" />
            <mxPoint x="290" y="260" as="targetPoint" />
          </mxGeometry>
        </mxCell>
        <mxCell id="ZbFLgx1OH3lc_ozg9QVk-12" value="«interface»&lt;br&gt;&lt;b&gt;State&lt;/b&gt;" style="html=1;whiteSpace=wrap;" vertex="1" parent="1">
          <mxGeometry x="70" y="490" width="110" height="50" as="geometry" />
        </mxCell>
        <mxCell id="ZbFLgx1OH3lc_ozg9QVk-13" value="" style="endArrow=diamondThin;endFill=0;endSize=24;html=1;rounded=0;" edge="1" parent="1" source="ZbFLgx1OH3lc_ozg9QVk-9" target="ZbFLgx1OH3lc_ozg9QVk-12">
          <mxGeometry width="160" relative="1" as="geometry">
            <mxPoint x="350" y="360" as="sourcePoint" />
            <mxPoint x="230" y="360" as="targetPoint" />
          </mxGeometry>
        </mxCell>
        <mxCell id="ZbFLgx1OH3lc_ozg9QVk-14" value="&lt;p style=&quot;margin: 4px 0px 0px;&quot;&gt;&lt;i&gt;&lt;br&gt;&lt;/i&gt;&lt;/p&gt;&lt;p style=&quot;margin: 4px 0px 0px;&quot;&gt;&lt;i style=&quot;background-color: initial;&quot;&gt;&amp;lt;&amp;lt;Interface&amp;gt;&amp;gt;&lt;/i&gt;&lt;br&gt;&lt;/p&gt;&lt;p style=&quot;margin: 4px 0px 0px;&quot;&gt;&lt;b&gt;CardGameEngineDSL&lt;/b&gt;&lt;/p&gt;" style="verticalAlign=middle;align=center;overflow=fill;html=1;whiteSpace=wrap;" vertex="1" parent="1">
          <mxGeometry x="710" y="310" width="200" height="80" as="geometry" />
        </mxCell>
        <mxCell id="ZbFLgx1OH3lc_ozg9QVk-15" value="" style="endArrow=diamondThin;endFill=0;endSize=24;html=1;rounded=0;" edge="1" parent="1" source="ZbFLgx1OH3lc_ozg9QVk-14" target="ZbFLgx1OH3lc_ozg9QVk-10">
          <mxGeometry width="160" relative="1" as="geometry">
            <mxPoint x="630" y="580" as="sourcePoint" />
            <mxPoint x="230" y="360" as="targetPoint" />
          </mxGeometry>
        </mxCell>
      </root>
    </mxGraphModel>
  </diagram>
  <diagram id="CiHcNNiscT0K0H4xDRCd" name="Game-Builder">
    <mxGraphModel dx="1274" dy="702" grid="1" gridSize="10" guides="1" tooltips="1" connect="1" arrows="1" fold="1" page="1" pageScale="1" pageWidth="827" pageHeight="1169" math="0" shadow="0">
      <root>
        <mxCell id="0" />
        <mxCell id="1" parent="0" />
        <mxCell id="r1kiBeWpLiNGvn41LkxT-1" value="GameModel" style="html=1;whiteSpace=wrap;" parent="1" vertex="1">
          <mxGeometry y="320" width="110" height="50" as="geometry" />
        </mxCell>
        <mxCell id="r1kiBeWpLiNGvn41LkxT-2" value="&lt;p style=&quot;margin:0px;margin-top:4px;text-align:center;&quot;&gt;&lt;i&gt;&amp;lt;&amp;lt;Interface&amp;gt;&amp;gt;&lt;/i&gt;&lt;br&gt;&lt;b&gt;GameBuilder&lt;/b&gt;&lt;/p&gt;&lt;hr size=&quot;1&quot; style=&quot;border-style:solid;&quot;&gt;&lt;p style=&quot;margin:0px;margin-left:4px;&quot;&gt;+ setName(name: String): GameBuilder&lt;/p&gt;&lt;p style=&quot;margin:0px;margin-left:4px;&quot;&gt;+ addPlayer(player: String): GameBuilder&lt;/p&gt;&lt;p style=&quot;margin:0px;margin-left:4px;&quot;&gt;+ starterPlayer(player: String): GameBuilder&lt;br&gt;&lt;/p&gt;&lt;p style=&quot;margin:0px;margin-left:4px;&quot;&gt;&lt;br&gt;&lt;/p&gt;&lt;p style=&quot;margin:0px;margin-left:4px;&quot;&gt;+ cardsInHand(numberOfCards: () =&amp;gt; Int): GameBuilder&lt;/p&gt;&lt;p style=&quot;margin:0px;margin-left:4px;&quot;&gt;+ cardsInHandPerPlayer(numberOfCards: () =&amp;gt; Int, player: String): GameBuilder&lt;/p&gt;&lt;p style=&quot;margin:0px;margin-left:4px;&quot;&gt;+ addSuit(suit: Suit): GameBuilder&lt;/p&gt;&lt;p style=&quot;margin:0px;margin-left:4px;&quot;&gt;+ addSortedRanks(ranks: List[Rank]): GameBuilder&lt;/p&gt;&lt;p style=&quot;margin:0px;margin-left:4px;&quot;&gt;+ setTrump(suit: Suit): GameBuilder&lt;/p&gt;&lt;p style=&quot;margin:0px;margin-left:4px;&quot;&gt;&lt;br&gt;&lt;/p&gt;&lt;p style=&quot;margin:0px;margin-left:4px;&quot;&gt;+ addPlayingRule(rule: PlayingRule): GameBuilder&lt;/p&gt;&lt;p style=&quot;margin:0px;margin-left:4px;&quot;&gt;+ addHandRule(rule: HandRule): GameBuilder&lt;/p&gt;&lt;p style=&quot;margin:0px;margin-left:4px;&quot;&gt;+ addWinCondition(winCondition: WinCondition): GameBuilder&lt;/p&gt;&lt;p style=&quot;margin:0px;margin-left:4px;&quot;&gt;&lt;br&gt;&lt;/p&gt;&lt;p style=&quot;margin:0px;margin-left:4px;&quot;&gt;+ build: GameModel&lt;/p&gt;" style="verticalAlign=top;align=left;overflow=fill;html=1;whiteSpace=wrap;" parent="1" vertex="1">
          <mxGeometry x="230" y="213.75" width="450" height="262.5" as="geometry" />
        </mxCell>
        <mxCell id="r1kiBeWpLiNGvn41LkxT-4" value="" style="endArrow=diamondThin;endFill=0;endSize=24;html=1;rounded=0;" parent="1" source="r1kiBeWpLiNGvn41LkxT-2" target="r1kiBeWpLiNGvn41LkxT-1" edge="1">
          <mxGeometry width="160" relative="1" as="geometry">
            <mxPoint x="200" y="380" as="sourcePoint" />
            <mxPoint x="360" y="380" as="targetPoint" />
          </mxGeometry>
        </mxCell>
      </root>
    </mxGraphModel>
  </diagram>
  <diagram id="GWK32n6IptHdD3VctGMj" name="DSL">
    <mxGraphModel dx="1820" dy="2103" grid="1" gridSize="10" guides="1" tooltips="1" connect="1" arrows="1" fold="1" page="1" pageScale="1" pageWidth="850" pageHeight="1100" math="0" shadow="0">
      <root>
        <mxCell id="0" />
        <mxCell id="1" parent="0" />
        <mxCell id="kJtKqoj22w3S0fMNJKCE-1" value="&lt;p style=&quot;margin:0px;margin-top:4px;text-align:center;&quot;&gt;&lt;i&gt;&amp;lt;&amp;lt;object&amp;gt;&amp;gt;&lt;/i&gt;&lt;br&gt;&lt;b&gt;CardGameEngineDSL&lt;/b&gt;&lt;/p&gt;&lt;hr size=&quot;1&quot; style=&quot;border-style:solid;&quot;&gt;&lt;p style=&quot;margin:0px;margin-left:4px;&quot;&gt;+ implicit game: GameBuilder&lt;/p&gt;&lt;p style=&quot;margin:0px;margin-left:4px;&quot;&gt;extension (game: GameBuilder)&lt;/p&gt;&lt;p style=&quot;margin:0px;margin-left:4px;&quot;&gt;&lt;span style=&quot;white-space: pre;&quot;&gt;&#x9;&lt;/span&gt;+ is(name: String): GameBuilder&lt;br&gt;&lt;/p&gt;&lt;p style=&quot;margin:0px;margin-left:4px;&quot;&gt;&lt;span style=&quot;white-space: pre;&quot;&gt;&#x9;&lt;/span&gt;+ has(syntSugar: PlayerSyntacticSugar): PlayerBuilder&lt;br&gt;&lt;/p&gt;&lt;p style=&quot;margin:0px;margin-left:4px;&quot;&gt;&lt;span style=&quot;white-space: pre;&quot;&gt;&#x9;&lt;/span&gt;+ gives(numOfCards: Int): CountCardBuilder&lt;br&gt;&lt;/p&gt;&lt;p style=&quot;margin:0px;margin-left:4px;&quot;&gt;&lt;span style=&quot;white-space: pre;&quot;&gt;&#x9;&lt;/span&gt;+ gives(syntSugar: RandomSyntacticSugar): CountCardBuilder&lt;br&gt;&lt;/p&gt;&lt;p style=&quot;margin:0px;margin-left:4px;&quot;&gt;&lt;span style=&quot;white-space: pre;&quot;&gt;&#x9;&lt;/span&gt;+ suitsAre(suits: Suit*): GameBuilder&lt;br&gt;&lt;/p&gt;&lt;p style=&quot;margin:0px;margin-left:4px;&quot;&gt;&lt;span style=&quot;white-space: pre;&quot;&gt;&#x9;&lt;/span&gt;+ ranksAre(ranks: Rank*): GameBuilder&lt;br&gt;&lt;/p&gt;&lt;p style=&quot;margin:0px;margin-left:4px;&quot;&gt;&lt;span style=&quot;white-space: pre;&quot;&gt;&#x9;&lt;/span&gt;+ trumpIs(suit: Suit): GameBuilder&lt;br&gt;&lt;/p&gt;&lt;p style=&quot;margin:0px;margin-left:4px;&quot;&gt;&lt;span style=&quot;white-space: pre;&quot;&gt;&#x9;&lt;/span&gt;+ starts(sytnSugar: FromSyntacticSugar): StarterBuilder&lt;br&gt;&lt;/p&gt;&lt;p style=&quot;margin:0px;margin-left:4px;&quot;&gt;&lt;span style=&quot;white-space: pre;&quot;&gt;&#x9;&lt;/span&gt;+ playing(syntSugar: RulesSyntacticSugar): PlayingRulesBuilder&lt;br&gt;&lt;/p&gt;&lt;p style=&quot;margin:0px;margin-left:4px;&quot;&gt;&lt;span style=&quot;white-space: pre;&quot;&gt;&#x9;&lt;/span&gt;+ win(syntSugar: ConditionSyntacticSugar): ConditionSyntacticSugar&lt;br&gt;&lt;/p&gt;&lt;p style=&quot;margin:0px;margin-left:4px;&quot;&gt;&lt;span style=&quot;white-space: pre;&quot;&gt;&#x9;&lt;/span&gt;+ hand(syntSugar: RulesSyntacticSugar): HandRulesBuilder&lt;br&gt;&lt;/p&gt;" style="verticalAlign=top;align=left;overflow=fill;html=1;whiteSpace=wrap;" vertex="1" parent="1">
          <mxGeometry x="860" y="222.5" width="450" height="245" as="geometry" />
        </mxCell>
        <mxCell id="kJtKqoj22w3S0fMNJKCE-2" value="" style="endArrow=diamondThin;endFill=0;endSize=24;html=1;rounded=0;" edge="1" parent="1" source="kJtKqoj22w3S0fMNJKCE-1" target="-_FRPdq5Yws-UwoHkhJM-1">
          <mxGeometry width="160" relative="1" as="geometry">
            <mxPoint x="240" y="355" as="sourcePoint" />
            <mxPoint x="680" y="345" as="targetPoint" />
          </mxGeometry>
        </mxCell>
        <mxCell id="-_FRPdq5Yws-UwoHkhJM-1" value="&lt;p style=&quot;margin:0px;margin-top:4px;text-align:center;&quot;&gt;&lt;i&gt;&amp;lt;&amp;lt;interface&amp;gt;&amp;gt;&lt;/i&gt;&lt;/p&gt;&lt;p style=&quot;margin:0px;margin-top:4px;text-align:center;&quot;&gt;&lt;b&gt;GameBuilde&lt;i&gt;r&lt;/i&gt;&lt;/b&gt;&lt;/p&gt;&lt;hr size=&quot;1&quot; style=&quot;border-style:solid;&quot;&gt;" style="verticalAlign=top;align=left;overflow=fill;html=1;whiteSpace=wrap;" vertex="1" parent="1">
          <mxGeometry x="510" y="320" width="155" height="48.75" as="geometry" />
        </mxCell>
        <mxCell id="-_FRPdq5Yws-UwoHkhJM-4" value="&lt;div&gt;SyntacticBuilders&lt;br&gt;&lt;/div&gt;" style="rounded=1;whiteSpace=wrap;html=1;fillColor=#d5e8d4;strokeColor=#82b366;opacity=60;align=left;verticalAlign=top;spacingLeft=30;arcSize=6;" vertex="1" parent="1">
          <mxGeometry x="370" y="-500" width="890" height="610" as="geometry" />
        </mxCell>
        <mxCell id="-_FRPdq5Yws-UwoHkhJM-3" value="&lt;p style=&quot;margin:0px;margin-top:4px;text-align:center;&quot;&gt;&lt;i&gt;&amp;lt;&amp;lt;object&amp;gt;&amp;gt;&lt;/i&gt;&lt;/p&gt;&lt;p style=&quot;margin:0px;margin-top:4px;text-align:center;&quot;&gt;&lt;b&gt;PlayerBuilder&lt;/b&gt;&lt;br&gt;&lt;/p&gt;&lt;hr size=&quot;1&quot; style=&quot;border-style:solid;&quot;&gt;&lt;div&gt;&amp;nbsp;+ apply(builder: GameBuilder): PlayerBuilder&lt;br&gt;&lt;/div&gt;" style="verticalAlign=top;align=left;overflow=fill;html=1;whiteSpace=wrap;" vertex="1" parent="1">
          <mxGeometry x="410" y="-150" width="250" height="80" as="geometry" />
        </mxCell>
        <mxCell id="-_FRPdq5Yws-UwoHkhJM-5" value="&lt;p style=&quot;margin:0px;margin-top:4px;text-align:center;&quot;&gt;&lt;i&gt;&amp;lt;&amp;lt;interface&amp;gt;&amp;gt;&lt;/i&gt;&lt;/p&gt;&lt;p style=&quot;margin:0px;margin-top:4px;text-align:center;&quot;&gt;&lt;b&gt;PlayerBuilder&lt;/b&gt;&lt;br&gt;&lt;/p&gt;&lt;hr size=&quot;1&quot; style=&quot;border-style:solid;&quot;&gt;&lt;div&gt;&amp;nbsp;+ called(name: String): GameBuilder&lt;br&gt;&lt;/div&gt;" style="verticalAlign=top;align=left;overflow=fill;html=1;whiteSpace=wrap;" vertex="1" parent="1">
          <mxGeometry x="490" y="-10" width="250" height="80" as="geometry" />
        </mxCell>
        <mxCell id="-_FRPdq5Yws-UwoHkhJM-6" value="SyntacticSugars" style="rounded=1;whiteSpace=wrap;html=1;fillColor=#dae8fc;strokeColor=#6c8ebf;opacity=60;align=left;verticalAlign=top;spacingLeft=50;arcSize=6;" vertex="1" parent="1">
          <mxGeometry x="1340" y="-450" width="750" height="560" as="geometry" />
        </mxCell>
        <mxCell id="-_FRPdq5Yws-UwoHkhJM-7" value="&lt;p style=&quot;margin:0px;margin-top:4px;text-align:center;&quot;&gt;&lt;i&gt;&amp;lt;&amp;lt;interface&amp;gt;&amp;gt;&lt;/i&gt;&lt;/p&gt;&lt;p style=&quot;margin:0px;margin-top:4px;text-align:center;&quot;&gt;&lt;b&gt;SyntacticSugar&lt;/b&gt;&lt;br&gt;&lt;/p&gt;" style="verticalAlign=top;align=left;overflow=fill;html=1;whiteSpace=wrap;" vertex="1" parent="1">
          <mxGeometry x="1575" y="-440" width="250" height="50" as="geometry" />
        </mxCell>
        <mxCell id="-_FRPdq5Yws-UwoHkhJM-8" value="&lt;p style=&quot;margin:0px;margin-top:4px;text-align:center;&quot;&gt;&lt;i&gt;&amp;lt;&amp;lt;interface&amp;gt;&amp;gt;&lt;/i&gt;&lt;/p&gt;&lt;p style=&quot;margin:0px;margin-top:4px;text-align:center;&quot;&gt;&lt;b&gt;PlayerSyntacticSugar&lt;/b&gt;&lt;br&gt;&lt;/p&gt;" style="verticalAlign=top;align=left;overflow=fill;html=1;whiteSpace=wrap;" vertex="1" parent="1">
          <mxGeometry x="1790" y="-240" width="250" height="50" as="geometry" />
        </mxCell>
        <mxCell id="-_FRPdq5Yws-UwoHkhJM-9" value="Extends" style="endArrow=block;endSize=16;endFill=0;html=1;rounded=0;" edge="1" parent="1" source="-_FRPdq5Yws-UwoHkhJM-8" target="-_FRPdq5Yws-UwoHkhJM-7">
          <mxGeometry x="-0.2" width="160" relative="1" as="geometry">
            <mxPoint x="1230" y="-180" as="sourcePoint" />
            <mxPoint x="1390" y="-180" as="targetPoint" />
            <mxPoint as="offset" />
          </mxGeometry>
        </mxCell>
        <mxCell id="-_FRPdq5Yws-UwoHkhJM-10" value="&lt;p style=&quot;margin:0px;margin-top:4px;text-align:center;&quot;&gt;&lt;i&gt;&amp;lt;&amp;lt;object&amp;gt;&amp;gt;&lt;/i&gt;&lt;/p&gt;&lt;p style=&quot;margin:0px;margin-top:4px;text-align:center;&quot;&gt;&lt;b&gt;SyntacticSugar&lt;/b&gt;&lt;br&gt;&lt;/p&gt;&lt;hr size=&quot;1&quot; style=&quot;border-style:solid;&quot;&gt;&lt;p style=&quot;margin:0px;margin-left:4px;&quot;&gt;+ implicit player: PlayerSyntacticSugar&lt;/p&gt;&lt;p style=&quot;margin:0px;margin-left:4px;&quot;&gt;+ implicit to: ToSyntacticSugar&lt;br&gt;&lt;/p&gt;" style="verticalAlign=top;align=left;overflow=fill;html=1;whiteSpace=wrap;" vertex="1" parent="1">
          <mxGeometry x="1778.75" y="-10" width="272.5" height="90" as="geometry" />
        </mxCell>
        <mxCell id="-_FRPdq5Yws-UwoHkhJM-11" value="" style="endArrow=diamondThin;endFill=0;endSize=24;html=1;rounded=0;" edge="1" parent="1" source="-_FRPdq5Yws-UwoHkhJM-10" target="-_FRPdq5Yws-UwoHkhJM-8">
          <mxGeometry width="160" relative="1" as="geometry">
            <mxPoint x="1590" y="-90" as="sourcePoint" />
            <mxPoint x="1750" y="-90" as="targetPoint" />
          </mxGeometry>
        </mxCell>
        <mxCell id="-_FRPdq5Yws-UwoHkhJM-12" value="" style="endArrow=diamondThin;endFill=0;endSize=24;html=1;rounded=0;" edge="1" parent="1" source="-_FRPdq5Yws-UwoHkhJM-3" target="-_FRPdq5Yws-UwoHkhJM-5">
          <mxGeometry width="160" relative="1" as="geometry">
            <mxPoint x="1311" y="170" as="sourcePoint" />
            <mxPoint x="1197" y="20" as="targetPoint" />
          </mxGeometry>
        </mxCell>
        <mxCell id="-_FRPdq5Yws-UwoHkhJM-13" value="" style="endArrow=diamondThin;endFill=0;endSize=24;html=1;rounded=0;" edge="1" parent="1" source="kJtKqoj22w3S0fMNJKCE-1" target="-_FRPdq5Yws-UwoHkhJM-8">
          <mxGeometry width="160" relative="1" as="geometry">
            <mxPoint x="1656" y="-60" as="sourcePoint" />
            <mxPoint x="1100" y="-20" as="targetPoint" />
          </mxGeometry>
        </mxCell>
        <mxCell id="-_FRPdq5Yws-UwoHkhJM-14" value="" style="endArrow=diamondThin;endFill=0;endSize=24;html=1;rounded=0;" edge="1" parent="1" source="kJtKqoj22w3S0fMNJKCE-1" target="-_FRPdq5Yws-UwoHkhJM-5">
          <mxGeometry width="160" relative="1" as="geometry">
            <mxPoint x="1313" y="233" as="sourcePoint" />
            <mxPoint x="1585" y="80" as="targetPoint" />
          </mxGeometry>
        </mxCell>
        <mxCell id="-_FRPdq5Yws-UwoHkhJM-15" value="&lt;p style=&quot;margin:0px;margin-top:4px;text-align:center;&quot;&gt;&lt;i&gt;&amp;lt;&amp;lt;interface&amp;gt;&amp;gt;&lt;/i&gt;&lt;/p&gt;&lt;p style=&quot;margin:0px;margin-top:4px;text-align:center;&quot;&gt;&lt;b&gt;CountCardBuilder&lt;/b&gt;&lt;br&gt;&lt;/p&gt;&lt;hr size=&quot;1&quot; style=&quot;border-style:solid;&quot;&gt;&lt;div&gt;&amp;nbsp;+ cards(syntSugar: ToSyntacticSugar): CardSyntacticSugarBuilder&lt;br&gt;&lt;/div&gt;" style="verticalAlign=top;align=left;overflow=fill;html=1;whiteSpace=wrap;" vertex="1" parent="1">
          <mxGeometry x="870" y="-10" width="370" height="80" as="geometry" />
        </mxCell>
        <mxCell id="-_FRPdq5Yws-UwoHkhJM-16" value="&lt;p style=&quot;margin:0px;margin-top:4px;text-align:center;&quot;&gt;&lt;i&gt;&amp;lt;&amp;lt;interface&amp;gt;&amp;gt;&lt;/i&gt;&lt;/p&gt;&lt;p style=&quot;margin:0px;margin-top:4px;text-align:center;&quot;&gt;&lt;b&gt;CountCardBuilder&lt;/b&gt;&lt;br&gt;&lt;/p&gt;&lt;hr size=&quot;1&quot; style=&quot;border-style:solid;&quot;&gt;&lt;div&gt;&amp;nbsp;+ apply(builder: GameBuilder, numOfCards: Int): CountCardBuilder&lt;br&gt;&lt;/div&gt;" style="verticalAlign=top;align=left;overflow=fill;html=1;whiteSpace=wrap;" vertex="1" parent="1">
          <mxGeometry x="770" y="-160" width="370" height="80" as="geometry" />
        </mxCell>
        <mxCell id="-_FRPdq5Yws-UwoHkhJM-17" value="" style="endArrow=diamondThin;endFill=0;endSize=24;html=1;rounded=0;" edge="1" parent="1" source="-_FRPdq5Yws-UwoHkhJM-16" target="-_FRPdq5Yws-UwoHkhJM-15">
          <mxGeometry width="160" relative="1" as="geometry">
            <mxPoint x="1470" y="-80" as="sourcePoint" />
            <mxPoint x="1470" as="targetPoint" />
          </mxGeometry>
        </mxCell>
        <mxCell id="-_FRPdq5Yws-UwoHkhJM-18" value="" style="endArrow=diamondThin;endFill=0;endSize=24;html=1;rounded=0;" edge="1" parent="1" source="kJtKqoj22w3S0fMNJKCE-1" target="-_FRPdq5Yws-UwoHkhJM-15">
          <mxGeometry width="160" relative="1" as="geometry">
            <mxPoint x="565" y="-310" as="sourcePoint" />
            <mxPoint x="565" y="-230" as="targetPoint" />
          </mxGeometry>
        </mxCell>
        <mxCell id="-_FRPdq5Yws-UwoHkhJM-19" value="&lt;p style=&quot;margin:0px;margin-top:4px;text-align:center;&quot;&gt;&lt;i&gt;&amp;lt;&amp;lt;interface&amp;gt;&amp;gt;&lt;/i&gt;&lt;/p&gt;&lt;p style=&quot;margin:0px;margin-top:4px;text-align:center;&quot;&gt;&lt;b&gt;CardSyntacticSugarBuilder&lt;/b&gt;&lt;br&gt;&lt;/p&gt;&lt;hr size=&quot;1&quot; style=&quot;border-style:solid;&quot;&gt;&lt;div&gt;&amp;nbsp;+ each(syntSugar: PlayerSyntacticSugar): GameBuilder&lt;br&gt;&lt;/div&gt;" style="verticalAlign=top;align=left;overflow=fill;html=1;whiteSpace=wrap;" vertex="1" parent="1">
          <mxGeometry x="870" y="-320" width="370" height="80" as="geometry" />
        </mxCell>
        <mxCell id="-_FRPdq5Yws-UwoHkhJM-20" value="&lt;p style=&quot;margin:0px;margin-top:4px;text-align:center;&quot;&gt;&lt;i&gt;&amp;lt;&amp;lt;object&amp;gt;&amp;gt;&lt;/i&gt;&lt;/p&gt;&lt;p style=&quot;margin:0px;margin-top:4px;text-align:center;&quot;&gt;&lt;b&gt;CardSyntacticSugarBuilder&lt;/b&gt;&lt;br&gt;&lt;/p&gt;&lt;hr size=&quot;1&quot; style=&quot;border-style:solid;&quot;&gt;&lt;div&gt;&amp;nbsp;+ apply(builder: GameBuilder): CardSyntacticSugarBuilder&lt;br&gt;&lt;/div&gt;" style="verticalAlign=top;align=left;overflow=fill;html=1;whiteSpace=wrap;" vertex="1" parent="1">
          <mxGeometry x="830" y="-460" width="370" height="80" as="geometry" />
        </mxCell>
        <mxCell id="-_FRPdq5Yws-UwoHkhJM-22" value="" style="endArrow=diamondThin;endFill=0;endSize=24;html=1;rounded=0;" edge="1" parent="1" source="-_FRPdq5Yws-UwoHkhJM-20" target="-_FRPdq5Yws-UwoHkhJM-19">
          <mxGeometry width="160" relative="1" as="geometry">
            <mxPoint x="992" y="-70" as="sourcePoint" />
            <mxPoint x="1038" as="targetPoint" />
          </mxGeometry>
        </mxCell>
        <mxCell id="-_FRPdq5Yws-UwoHkhJM-23" value="" style="endArrow=diamondThin;endFill=0;endSize=24;html=1;rounded=0;exitX=0.883;exitY=-0.001;exitDx=0;exitDy=0;exitPerimeter=0;entryX=0.882;entryY=1;entryDx=0;entryDy=0;entryPerimeter=0;" edge="1" parent="1" source="-_FRPdq5Yws-UwoHkhJM-15" target="-_FRPdq5Yws-UwoHkhJM-19">
          <mxGeometry width="160" relative="1" as="geometry">
            <mxPoint x="1080" y="-390" as="sourcePoint" />
            <mxPoint x="1080" y="-310" as="targetPoint" />
          </mxGeometry>
        </mxCell>
        <mxCell id="-_FRPdq5Yws-UwoHkhJM-24" value="&lt;p style=&quot;margin:0px;margin-top:4px;text-align:center;&quot;&gt;&lt;i&gt;&amp;lt;&amp;lt;interface&amp;gt;&amp;gt;&lt;/i&gt;&lt;/p&gt;&lt;p style=&quot;margin:0px;margin-top:4px;text-align:center;&quot;&gt;&lt;b&gt;ToSyntacticSugar&lt;/b&gt;&lt;i&gt;&lt;b&gt;&lt;br&gt;&lt;/b&gt;&lt;/i&gt;&lt;/p&gt;&lt;b&gt;&lt;/b&gt;" style="verticalAlign=top;align=left;overflow=fill;html=1;whiteSpace=wrap;" vertex="1" parent="1">
          <mxGeometry x="1360" y="-240" width="250" height="50" as="geometry" />
        </mxCell>
        <mxCell id="-_FRPdq5Yws-UwoHkhJM-25" value="Extends" style="endArrow=block;endSize=16;endFill=0;html=1;rounded=0;" edge="1" parent="1" source="-_FRPdq5Yws-UwoHkhJM-24" target="-_FRPdq5Yws-UwoHkhJM-7">
          <mxGeometry x="-0.2" width="160" relative="1" as="geometry">
            <mxPoint x="1550" y="-260" as="sourcePoint" />
            <mxPoint x="1682" y="-380" as="targetPoint" />
            <mxPoint as="offset" />
          </mxGeometry>
        </mxCell>
        <mxCell id="-_FRPdq5Yws-UwoHkhJM-26" value="" style="endArrow=diamondThin;endFill=0;endSize=24;html=1;rounded=0;" edge="1" parent="1" source="-_FRPdq5Yws-UwoHkhJM-10" target="-_FRPdq5Yws-UwoHkhJM-24">
          <mxGeometry width="160" relative="1" as="geometry">
            <mxPoint x="1656" y="-60" as="sourcePoint" />
            <mxPoint x="1542" y="-210" as="targetPoint" />
          </mxGeometry>
        </mxCell>
        <mxCell id="-_FRPdq5Yws-UwoHkhJM-27" value="" style="endArrow=diamondThin;endFill=0;endSize=24;html=1;rounded=0;exitX=1;exitY=0.5;exitDx=0;exitDy=0;" edge="1" parent="1" source="-_FRPdq5Yws-UwoHkhJM-15" target="-_FRPdq5Yws-UwoHkhJM-24">
          <mxGeometry width="160" relative="1" as="geometry">
            <mxPoint x="1207" as="sourcePoint" />
            <mxPoint x="1203" y="-231" as="targetPoint" />
          </mxGeometry>
        </mxCell>
        <mxCell id="-_FRPdq5Yws-UwoHkhJM-28" value="" style="endArrow=diamondThin;endFill=0;endSize=24;html=1;rounded=0;edgeStyle=orthogonalEdgeStyle;" edge="1" parent="1" source="-_FRPdq5Yws-UwoHkhJM-19" target="-_FRPdq5Yws-UwoHkhJM-8">
          <mxGeometry width="160" relative="1" as="geometry">
            <mxPoint x="1207" as="sourcePoint" />
            <mxPoint x="1206" y="-230" as="targetPoint" />
            <Array as="points">
              <mxPoint x="1300" y="-280" />
              <mxPoint x="1300" y="-500" />
              <mxPoint x="1960" y="-500" />
            </Array>
          </mxGeometry>
        </mxCell>
      </root>
    </mxGraphModel>
  </diagram>
</mxfile>
